<?xml version="1.0" encoding="UTF-8" standalone="no"?>
<!-- Created with Inkscape (http://www.inkscape.org/) -->

<svg
   width="124.61686mm"
   height="208.95767mm"
   viewBox="0 0 124.61686 208.95767"
   version="1.1"
   id="svg1"
   xml:space="preserve"
   xmlns="http://www.w3.org/2000/svg"
   xmlns:svg="http://www.w3.org/2000/svg"><defs
     id="defs1" /><g
     id="layer3"
     transform="translate(-43.360063,-51.649214)"><g
       id="g11"><g
         id="g10"><g
           id="g9"><rect
             style="fill:#ffffff;fill-opacity:1;stroke:none;stroke-width:5.61218;stroke-linecap:round;stroke-linejoin:round;stroke-miterlimit:34.9"
             id="rect9-4"
             width="21.061468"
             height="12.122945"
             x="90.712585"
             y="52.721565"
             rx="0"
             ry="0" /><rect
             style="fill:#ffffff;fill-opacity:1;stroke:none;stroke-width:8.66418;stroke-linecap:round;stroke-linejoin:round;stroke-miterlimit:34.9"
             id="rect9-4-5"
             width="21.061468"
             height="28.893454"
             x="98.376747"
             y="54.748589"
             rx="0"
             ry="0" /><rect
             style="fill:#ffffff;fill-opacity:1;stroke:none;stroke-width:8.0442;stroke-linecap:round;stroke-linejoin:round;stroke-miterlimit:34.9"
             id="rect9-4-5-8"
             width="21.061468"
             height="24.90634"
             x="106.2513"
             y="62.233917"
             rx="0"
             ry="0" /><rect
             style="fill:#ffffff;fill-opacity:1;stroke:none;stroke-width:5.55215;stroke-linecap:round;stroke-linejoin:round;stroke-miterlimit:34.9"
             id="rect9-4-5-4"
             width="14.89835"
             height="16.77323"
             x="109.33286"
             y="59.340706"
             rx="0"
             ry="0" /></g><rect
           style="fill:#ffffff;fill-opacity:1;stroke:none;stroke-width:8.29788;stroke-linecap:round;stroke-linejoin:round;stroke-miterlimit:34.9"
           id="rect9-4-5-3"
           width="40.191601"
           height="13.887761"
           x="92.264984"
           y="87.140259"
           rx="0"
           ry="0" /></g><rect
         style="fill:#ffffff;fill-opacity:1;stroke:none;stroke-width:15.544;stroke-linecap:round;stroke-linejoin:round;stroke-miterlimit:34.9"
         id="rect9-4-5-5"
         width="55.136299"
         height="35.523857"
         x="85.851578"
         y="102.15992"
         rx="0"
         ry="0" /></g><rect
       style="fill:#e2e2e2;fill-opacity:1;stroke:none;stroke-width:4.28625;stroke-linecap:round;stroke-linejoin:round;stroke-miterlimit:34.9"
       id="rect9"
       width="7.5133572"
       height="19.822401"
       x="97.486641"
       y="64.775887"
       rx="0"
       ry="0" /><rect
       style="fill:#e2e2e2;fill-opacity:1;stroke:none;stroke-width:3.33969;stroke-linecap:round;stroke-linejoin:round;stroke-miterlimit:34.9"
       id="rect9-1"
       width="7.5133572"
       height="12.034078"
       x="124.94323"
       y="86.995537"
       rx="0"
       ry="0" /><rect
       style="fill:#e2e2e2;fill-opacity:1;stroke:none;stroke-width:3.33969;stroke-linecap:round;stroke-linejoin:round;stroke-miterlimit:34.9"
       id="rect9-1-8"
       width="7.5133572"
       height="12.034078"
       x="140.49374"
       y="137.05417"
       rx="0"
       ry="0" /><rect
       style="fill:#e2e2e2;fill-opacity:1;stroke:none;stroke-width:3.33969;stroke-linecap:round;stroke-linejoin:round;stroke-miterlimit:34.9"
       id="rect9-1-4"
       width="7.5133572"
       height="12.034078"
       x="134.67291"
       y="128.85208"
       rx="0"
       ry="0" /><rect
       style="fill:#e2e2e2;fill-opacity:1;stroke:none;stroke-width:7.1667;stroke-linecap:round;stroke-linejoin:round;stroke-miterlimit:34.9"
       id="rect9-1-6"
       width="12.287979"
       height="33.883762"
       x="128.69991"
       y="102.15992"
       rx="0"
       ry="0" /><rect
       style="fill:#50b8e7;fill-opacity:1;stroke:none;stroke-width:34.0601;stroke-linecap:round;stroke-linejoin:round;stroke-miterlimit:34.9"
       id="rect9-1-1-3"
       width="78.200928"
       height="120.25837"
       x="73.529243"
       y="136.72186"
       rx="0"
       ry="0" /><rect
       style="fill:#84cdee;fill-opacity:1;stroke:none;stroke-width:30.9437;stroke-linecap:round;stroke-linejoin:round;stroke-miterlimit:34.9"
       id="rect9-1-1-3-0"
       width="70.681129"
       height="109.81849"
       x="73.59127"
       y="136.77675"
       rx="9.4285049"
       ry="15.48161" /><rect
       style="fill:#ffffff;fill-opacity:1;stroke:none;stroke-width:18.1222;stroke-linecap:round;stroke-linejoin:round;stroke-miterlimit:34.9"
       id="rect9-1-1-3-0-4"
       width="56.982704"
       height="46.721458"
       x="85.146568"
       y="189.28738"
       rx="7.6012044"
       ry="6.5865359" /><rect
       style="fill:#84cdee;fill-opacity:1;stroke:none;stroke-width:4.25146;stroke-linecap:round;stroke-linejoin:round;stroke-miterlimit:34.9"
       id="rect9-1-1-3-0-1"
       width="8.5312958"
       height="17.174932"
       x="135.71913"
       y="137.05417"
       rx="0"
       ry="0" /><rect
       style="fill:#84cdee;fill-opacity:1;stroke:none;stroke-width:4.25146;stroke-linecap:round;stroke-linejoin:round;stroke-miterlimit:34.9"
       id="rect9-1-1-3-0-1-4"
       width="8.5312958"
       height="17.174932"
       x="73.554169"
       y="229.5645"
       rx="0"
       ry="0" /></g><g
     id="layer2"
     transform="translate(-43.360063,-51.649214)"><path
       id="rect1"
       style="fill:none;stroke:#000000;stroke-width:4.28625;stroke-linecap:round;stroke-linejoin:round;stroke-miterlimit:34.9"
       d="m 106.8253,136.09707 37.16354,-0.0708 c 4.28869,-0.008 7.74134,3.05805 7.74134,6.85661 v 107.93634 c 0,3.79856 -3.45264,6.85661 -7.74134,6.85661 H 81.394618 c -4.2887,0 -7.741336,-3.05805 -7.741336,-6.85661 V 142.88293 c 0,-3.79856 3.452636,-6.85661 7.741336,-6.85661 h 12.979526" /><path
       style="fill:none;stroke:#000000;stroke-width:4.28625;stroke-linecap:round;stroke-linejoin:round;stroke-miterlimit:34.9"
       d="m 85.743197,145.57767 0.09777,28.45071"
       id="path1" /><path
       style="fill:none;stroke:#000000;stroke-width:4.28625;stroke-linecap:round;stroke-linejoin:round;stroke-miterlimit:34.9"
       d="m 45.503187,258.46375 10.622459,-0.0297 m 8.733822,-0.0244 100.974332,-0.28249"
       id="path2" /><rect
       style="fill:none;stroke:#000000;stroke-width:4.28625;stroke-linecap:round;stroke-linejoin:round;stroke-miterlimit:34.9"
       id="rect2"
       width="56.982704"
       height="46.721451"
       x="85.146568"
       y="189.28738"
       rx="5.2306008"
       ry="5.0008545" /><path
       style="fill:none;stroke:#000000;stroke-width:4.28625;stroke-linecap:round;stroke-linejoin:round;stroke-miterlimit:34.9"
       d="m 102.61253,206.09836 22.15994,-0.10916"
       id="path3" /><path
       style="fill:none;stroke:#000000;stroke-width:4.28625;stroke-linecap:round;stroke-linejoin:round;stroke-miterlimit:34.9"
       d="m 98.24604,220.39862 29.8013,-0.10916"
       id="path4" /><path
       id="rect4"
       style="fill:none;stroke:#000000;stroke-width:4.28625;stroke-linecap:round;stroke-linejoin:round;stroke-miterlimit:34.9"
       d="m 85.792082,134.13507 2e-6,-28.10619 c 0,-2.77048 2.332848,-5.00086 5.230601,-5.00086 h 44.729585 c 2.89775,0 5.22414,2.23039 5.2306,5.00086 l 0.0645,27.68016" /><path
       id="rect5"
       style="fill:none;stroke:#000000;stroke-width:4.28625;stroke-linecap:round;stroke-linejoin:round;stroke-miterlimit:34.9"
       d="m 92.789581,98.247379 v -8.72532 c 0,-1.540476 0.864601,-2.780642 1.938567,-2.780642 h 36.852282 c 1.07397,0 1.93427,1.240172 1.93857,2.780642 l 0.0273,9.761671" /><path
       style="fill:none;stroke:#000000;stroke-width:4.28625;stroke-linecap:round;stroke-linejoin:round;stroke-miterlimit:34.9"
       d="m 97.486643,64.775891 0.143468,21.965526"
       id="path5" /><path
       style="fill:none;stroke:#000000;stroke-width:4.28625;stroke-linecap:round;stroke-linejoin:round;stroke-miterlimit:34.9"
       d="m 128.69098,84.598292 -0.21521,-13.509799 c -0.27281,-3.367058 -1.51931,-6.64959 -3.5502,-9.349034 -2.03089,-2.699444 -4.83941,-4.806823 -7.99898,-6.002062 -2.24752,-0.850219 -4.6417,-1.240944 -7.02995,-1.506417 -3.11186,-0.345907 -6.2464,-0.487572 -9.37677,-0.423782"
       id="path6" /><path
       id="rect7"
       style="fill:none;stroke:#000000;stroke-width:4.28625;stroke-linecap:round;stroke-linejoin:round;stroke-miterlimit:34.9"
       d="M 105.55604,64.491285 H 94.59688 c -2.778484,0 -5.015314,-1.137697 -5.015314,-2.550892 v -5.582304 c 0,-1.413194 2.23683,-2.550891 5.015314,-2.550891 h 5.92299" /></g></svg>
