<svg xmlns="http://www.w3.org/2000/svg" xmlns:xlink="http://www.w3.org/1999/xlink" width="1080" zoomAndPan="magnify" viewBox="0 0 810 809.999993" height="1080" preserveAspectRatio="xMidYMid meet" version="1.0"><rect x="-81" width="972" fill="#ffffff" y="-80.999999" height="971.999992" fill-opacity="1"/><rect x="-81" width="972" fill="#ffffff" y="-80.999999" height="971.999992" fill-opacity="1"/><path fill="#caddff" d="M 17.746094 645.070312 C 40.703125 700.625 94.285156 726.929688 128.53125 743.746094 C 263.511719 810.027344 468.496094 802.417969 615.96875 681.8125 C 650.480469 653.585938 820.578125 505.71875 780.8125 305.28125 C 745.660156 128.097656 569.378906 25.191406 420.972656 11.425781 C 298.023438 0.0195312 137.503906 44.617188 80.835938 152.652344 C 45.203125 220.585938 88.089844 242.195312 59.015625 396.167969 C 33.855469 529.429688 -10.335938 577.117188 17.746094 645.070312 " fill-opacity="1" fill-rule="nonzero"/><path fill="#5479f7" d="M 719.746094 294.210938 L 71.800781 274.210938 C 56.394531 274.210938 43.855469 284.234375 43.855469 296.550781 L 43.855469 658.195312 C 43.855469 670.515625 56.394531 680.539062 71.800781 680.539062 L 305.921875 667.859375 L 275.863281 755.574219 L 244.0625 755.777344 C 234.144531 755.777344 226.078125 762.226562 226.078125 770.15625 C 226.078125 778.085938 234.144531 784.535156 244.0625 784.535156 L 510.410156 774.378906 C 520.324219 774.378906 501.765625 680.539062 501.765625 680.539062 C 501.765625 680.539062 735.15625 294.210938 719.746094 294.210938 " fill-opacity="1" fill-rule="nonzero"/><path fill="#99b9ff" d="M 497.582031 634.304688 L 332.355469 634.304688 L 285.480469 771.089844 L 544.457031 771.089844 L 497.582031 634.304688 " fill-opacity="1" fill-rule="nonzero"/><path fill="#99b9ff" d="M 744.839844 275.476562 L 85.097656 275.476562 C 70.535156 275.476562 58.730469 284.914062 58.730469 296.550781 L 58.730469 658.195312 C 58.730469 669.839844 70.535156 679.277344 85.097656 679.277344 L 744.839844 679.277344 C 759.398438 679.277344 771.203125 669.839844 771.203125 658.195312 L 771.203125 296.550781 C 771.203125 284.914062 759.398438 275.476562 744.839844 275.476562 " fill-opacity="1" fill-rule="nonzero"/><path fill="#99b9ff" d="M 572.582031 757.039062 L 257.355469 757.039062 C 248.296875 757.039062 240.949219 762.914062 240.949219 770.15625 C 240.949219 777.398438 248.296875 783.273438 257.355469 783.273438 L 572.582031 783.273438 C 581.640625 783.273438 588.984375 777.398438 588.984375 770.15625 C 588.984375 762.914062 581.640625 757.039062 572.582031 757.039062 " fill-opacity="1" fill-rule="nonzero"/><path fill="#000000" d="M 549.652344 784.679688 L 466.496094 784.679688 C 465.722656 784.679688 465.09375 784.050781 465.09375 783.273438 C 465.09375 782.496094 465.722656 781.867188 466.496094 781.867188 L 549.652344 781.867188 C 550.425781 781.867188 551.058594 782.496094 551.058594 783.273438 C 551.058594 784.050781 550.425781 784.679688 549.652344 784.679688 " fill-opacity="1" fill-rule="nonzero"/><path fill="#000000" d="M 744.839844 680.683594 L 495.628906 680.683594 C 494.847656 680.683594 494.222656 680.054688 494.222656 679.277344 C 494.222656 678.5 494.847656 677.871094 495.628906 677.871094 L 744.839844 677.871094 C 758.601562 677.871094 769.796875 669.050781 769.796875 658.199219 L 769.796875 296.554688 C 769.796875 285.707031 758.601562 276.882812 744.839844 276.882812 L 85.097656 276.882812 C 71.332031 276.882812 60.136719 285.707031 60.136719 296.554688 L 60.136719 658.199219 C 60.136719 669.050781 71.332031 677.871094 85.097656 677.871094 L 148.636719 677.871094 C 149.414062 677.871094 150.046875 678.5 150.046875 679.277344 C 150.046875 680.054688 149.414062 680.683594 148.636719 680.683594 L 85.097656 680.683594 C 69.78125 680.683594 57.324219 670.59375 57.324219 658.199219 L 57.324219 296.554688 C 57.324219 284.15625 69.78125 274.070312 85.097656 274.070312 L 744.839844 274.070312 C 760.152344 274.070312 772.609375 284.15625 772.609375 296.554688 L 772.609375 658.199219 C 772.609375 670.59375 760.152344 680.683594 744.839844 680.683594 " fill-opacity="1" fill-rule="nonzero"/><path fill="#000000" d="M 747.765625 651.460938 C 746.992188 651.460938 746.359375 650.832031 746.359375 650.058594 L 746.359375 507.566406 C 746.359375 506.789062 746.992188 506.160156 747.765625 506.160156 C 748.546875 506.160156 749.171875 506.789062 749.171875 507.566406 L 749.171875 650.058594 C 749.171875 650.832031 748.546875 651.460938 747.765625 651.460938 " fill-opacity="1" fill-rule="nonzero"/><path fill="#000000" d="M 619.421875 661.945312 L 524.703125 661.945312 C 523.929688 661.945312 523.300781 661.316406 523.300781 660.539062 C 523.300781 659.761719 523.929688 659.132812 524.703125 659.132812 L 619.421875 659.132812 C 620.199219 659.132812 620.832031 659.761719 620.832031 660.539062 C 620.832031 661.316406 620.199219 661.945312 619.421875 661.945312 " fill-opacity="1" fill-rule="nonzero"/><path fill="#000000" d="M 153.328125 661.945312 L 95.277344 661.945312 C 87.273438 661.945312 80.761719 656.609375 80.761719 650.054688 C 80.761719 649.28125 81.390625 648.648438 82.167969 648.648438 C 82.945312 648.648438 83.574219 649.28125 83.574219 650.054688 C 83.574219 655.058594 88.824219 659.132812 95.277344 659.132812 L 153.328125 659.132812 C 154.105469 659.132812 154.734375 659.761719 154.734375 660.539062 C 154.734375 661.316406 154.105469 661.945312 153.328125 661.945312 " fill-opacity="1" fill-rule="nonzero"/><path fill="#000000" d="M 82.167969 345.980469 C 81.390625 345.980469 80.761719 345.347656 80.761719 344.570312 L 80.761719 322.339844 C 80.761719 321.5625 81.390625 320.933594 82.167969 320.933594 C 82.945312 320.933594 83.574219 321.5625 83.574219 322.339844 L 83.574219 344.570312 C 83.574219 345.347656 82.945312 345.980469 82.167969 345.980469 " fill-opacity="1" fill-rule="nonzero"/><path fill="#000000" d="M 82.167969 306.101562 C 81.390625 306.101562 80.761719 305.464844 80.761719 304.691406 C 80.761719 298.136719 87.273438 292.804688 95.277344 292.804688 L 133.300781 292.804688 C 134.078125 292.804688 134.707031 293.433594 134.707031 294.210938 C 134.707031 294.988281 134.078125 295.617188 133.300781 295.617188 L 95.277344 295.617188 C 88.824219 295.617188 83.574219 299.691406 83.574219 304.691406 C 83.574219 305.464844 82.945312 306.101562 82.167969 306.101562 " fill-opacity="1" fill-rule="nonzero"/><path fill="#000000" d="M 747.765625 323.746094 C 746.992188 323.746094 746.359375 323.121094 746.359375 322.339844 L 746.359375 304.691406 C 746.359375 299.691406 741.109375 295.621094 734.65625 295.621094 L 695.554688 295.621094 C 694.777344 295.621094 694.144531 294.988281 694.144531 294.214844 C 694.144531 293.433594 694.777344 292.808594 695.554688 292.808594 L 734.65625 292.808594 C 742.660156 292.808594 749.171875 298.136719 749.171875 304.691406 L 749.171875 322.339844 C 749.171875 323.121094 748.546875 323.746094 747.765625 323.746094 " fill-opacity="1" fill-rule="nonzero"/><path fill="#000000" d="M 747.765625 372.996094 C 746.992188 372.996094 746.359375 372.371094 746.359375 371.59375 L 746.359375 347.019531 C 746.359375 346.246094 746.992188 345.613281 747.765625 345.613281 C 748.546875 345.613281 749.171875 346.246094 749.171875 347.019531 L 749.171875 371.59375 C 749.171875 372.371094 748.546875 372.996094 747.765625 372.996094 " fill-opacity="1" fill-rule="nonzero"/><path fill="#ffffff" d="M 709.105469 658.226562 L 101.746094 658.226562 L 101.746094 118.683594 L 709.105469 118.683594 L 709.105469 658.226562 " fill-opacity="1" fill-rule="nonzero"/><path fill="#caddff" d="M 402.351562 268.1875 L 142.246094 268.1875 C 133.015625 268.1875 125.53125 275.667969 125.53125 284.898438 L 125.53125 393.179688 C 125.53125 402.402344 133.015625 409.882812 142.246094 409.882812 L 402.351562 409.882812 C 411.582031 409.882812 419.0625 402.402344 419.0625 393.179688 L 419.0625 284.898438 C 419.0625 275.667969 411.582031 268.1875 402.351562 268.1875 " fill-opacity="1" fill-rule="nonzero"/><path fill="#ffffff" d="M 371.765625 306.550781 L 174.550781 306.550781 L 174.550781 289.691406 L 371.765625 289.691406 L 371.765625 306.550781 " fill-opacity="1" fill-rule="nonzero"/><path fill="#ffffff" d="M 401.285156 338.582031 L 150.011719 338.582031 L 150.011719 326.898438 L 401.285156 326.898438 L 401.285156 338.582031 " fill-opacity="1" fill-rule="nonzero"/><path fill="#ffffff" d="M 401.285156 363.484375 L 150.011719 363.484375 L 150.011719 351.796875 L 401.285156 351.796875 L 401.285156 363.484375 " fill-opacity="1" fill-rule="nonzero"/><path fill="#ffffff" d="M 339.328125 388.382812 L 150.011719 388.382812 L 150.011719 376.703125 L 339.328125 376.703125 L 339.328125 388.382812 " fill-opacity="1" fill-rule="nonzero"/><path fill="#caddff" d="M 674.09375 267.722656 L 447.230469 267.722656 C 439.179688 267.722656 432.65625 275.203125 432.65625 284.429688 L 432.65625 392.710938 C 432.65625 401.9375 439.179688 409.417969 447.230469 409.417969 L 674.09375 409.417969 C 682.140625 409.417969 688.667969 401.9375 688.667969 392.710938 L 688.667969 284.429688 C 688.667969 275.203125 682.140625 267.722656 674.09375 267.722656 " fill-opacity="1" fill-rule="nonzero"/><path fill="#ffffff" d="M 661.445312 333.421875 L 459.367188 333.421875 L 459.367188 321.738281 L 661.445312 321.738281 L 661.445312 333.421875 " fill-opacity="1" fill-rule="nonzero"/><path fill="#ffffff" d="M 585.03125 306.234375 L 460.304688 306.234375 L 460.304688 294.554688 L 585.03125 294.554688 L 585.03125 306.234375 " fill-opacity="1" fill-rule="nonzero"/><path fill="#ffffff" d="M 615.671875 358.316406 L 459.371094 358.316406 L 459.371094 346.636719 L 615.671875 346.636719 L 615.671875 358.316406 " fill-opacity="1" fill-rule="nonzero"/><path fill="#caddff" d="M 661.445312 383.222656 L 459.367188 383.222656 L 459.367188 371.542969 L 661.445312 371.542969 L 661.445312 383.222656 " fill-opacity="1" fill-rule="nonzero"/><path fill="#caddff" d="M 402.820312 422.878906 L 142.710938 422.878906 C 133.484375 422.878906 126 434.367188 126 448.539062 L 126 614.851562 C 126 629.019531 133.484375 640.511719 142.710938 640.511719 L 402.820312 640.511719 C 412.046875 640.511719 419.53125 629.019531 419.53125 614.851562 L 419.53125 448.539062 C 419.53125 434.367188 412.046875 422.878906 402.820312 422.878906 " fill-opacity="1" fill-rule="nonzero"/><path fill="#ffffff" d="M 369.417969 461.242188 L 172.203125 461.242188 L 172.203125 444.378906 L 369.417969 444.378906 L 369.417969 461.242188 " fill-opacity="1" fill-rule="nonzero"/><path fill="#ffffff" d="M 390.222656 493.273438 L 155.207031 493.273438 L 155.207031 481.585938 L 390.222656 481.585938 L 390.222656 493.273438 " fill-opacity="1" fill-rule="nonzero"/><path fill="#ffffff" d="M 390.222656 518.171875 L 155.207031 518.171875 L 155.207031 506.488281 L 390.222656 506.488281 L 390.222656 518.171875 " fill-opacity="1" fill-rule="nonzero"/><path fill="#ffffff" d="M 319.320312 543.070312 L 155.207031 543.070312 L 155.207031 531.386719 L 319.320312 531.386719 L 319.320312 543.070312 " fill-opacity="1" fill-rule="nonzero"/><path fill="#ffffff" d="M 391.15625 567.863281 L 156.144531 567.863281 L 156.144531 556.175781 L 391.15625 556.175781 L 391.15625 567.863281 " fill-opacity="1" fill-rule="nonzero"/><path fill="#ffffff" d="M 313.695312 592.761719 L 156.144531 592.761719 L 156.144531 581.078125 L 313.695312 581.078125 L 313.695312 592.761719 " fill-opacity="1" fill-rule="nonzero"/><path fill="#5479f7" d="M 678.308594 375.53125 L 449.785156 375.53125 C 441.671875 375.53125 435.097656 387.015625 435.097656 401.191406 L 435.097656 567.5 C 435.097656 581.671875 442.59375 590.738281 450.703125 590.738281 L 679.0625 590.269531 C 687.167969 590.269531 692.992188 581.671875 692.992188 567.5 L 692.992188 401.191406 C 692.992188 387.015625 686.417969 375.53125 678.308594 375.53125 " fill-opacity="1" fill-rule="nonzero"/><path fill="#caddff" d="M 433.824219 551.359375 L 513.265625 466.359375 C 517.289062 462.050781 524.0625 461.84375 528.34375 465.898438 L 609.664062 542.921875 L 650.617188 498.636719 C 653.417969 495.617188 658.089844 495.332031 661.226562 498 L 693.128906 525.109375 L 692.75 580.242188 C 692.699219 587.347656 686.925781 593.082031 679.820312 593.082031 L 450.480469 593.082031 C 442.691406 593.082031 436.226562 587.042969 435.707031 579.269531 L 433.824219 551.359375 " fill-opacity="1" fill-rule="nonzero"/><path fill="#caddff" d="M 628.898438 430.179688 C 628.898438 438.078125 622.496094 444.476562 614.597656 444.476562 C 606.699219 444.476562 600.296875 438.078125 600.296875 430.179688 C 600.296875 422.28125 606.699219 415.878906 614.597656 415.878906 C 622.496094 415.878906 628.898438 422.28125 628.898438 430.179688 " fill-opacity="1" fill-rule="nonzero"/><path fill="#000000" d="M 449.78125 376.9375 C 442.585938 376.9375 436.5 388.042969 436.5 401.1875 L 436.5 567.5 C 436.5 581.167969 443.722656 589.332031 450.707031 589.332031 L 679.054688 588.863281 C 686.554688 588.863281 691.585938 580.28125 691.585938 567.5 L 691.585938 401.1875 C 691.585938 388.042969 685.503906 376.9375 678.308594 376.9375 Z M 450.707031 592.144531 C 442.457031 592.144531 433.691406 583.507812 433.691406 567.5 L 433.691406 401.1875 C 433.691406 386.007812 440.761719 374.125 449.78125 374.125 L 678.308594 374.125 C 687.332031 374.125 694.394531 386.007812 694.394531 401.1875 L 694.394531 567.5 C 694.394531 581.960938 688.234375 591.675781 679.058594 591.675781 L 450.707031 592.144531 " fill-opacity="1" fill-rule="nonzero"/><path fill="#5479f7" d="M 437.519531 59.21875 L 177.414062 59.21875 C 168.183594 59.21875 160.703125 68.417969 160.703125 79.761719 L 160.703125 212.878906 C 160.703125 224.222656 168.183594 233.414062 177.414062 233.414062 L 437.519531 233.414062 C 446.75 233.414062 454.234375 224.222656 454.234375 212.878906 L 454.234375 79.761719 C 454.234375 68.417969 446.75 59.21875 437.519531 59.21875 " fill-opacity="1" fill-rule="nonzero"/><path fill="#000000" d="M 177.414062 60.625 C 168.972656 60.625 162.109375 69.210938 162.109375 79.761719 L 162.109375 212.878906 C 162.109375 223.429688 168.972656 232.007812 177.414062 232.007812 L 437.523438 232.007812 C 445.960938 232.007812 452.824219 223.429688 452.824219 212.878906 L 452.824219 79.761719 C 452.824219 69.210938 445.960938 60.625 437.523438 60.625 Z M 437.523438 234.828125 L 177.414062 234.828125 C 167.425781 234.828125 159.296875 224.980469 159.296875 212.878906 L 159.296875 79.761719 C 159.296875 67.660156 167.425781 57.816406 177.414062 57.816406 L 437.523438 57.816406 C 447.511719 57.816406 455.636719 67.660156 455.636719 79.761719 L 455.636719 212.878906 C 455.636719 224.980469 447.511719 234.828125 437.523438 234.828125 " fill-opacity="1" fill-rule="nonzero"/><path fill="#ffffff" d="M 402.242188 97.585938 L 205.027344 97.585938 L 205.027344 80.726562 L 402.242188 80.726562 L 402.242188 97.585938 " fill-opacity="1" fill-rule="nonzero"/><path fill="#caddff" d="M 432.078125 129.613281 L 185.183594 129.613281 L 185.183594 117.925781 L 432.078125 117.925781 L 432.078125 129.613281 " fill-opacity="1" fill-rule="nonzero"/><path fill="#caddff" d="M 346.203125 154.515625 L 185.179688 154.515625 L 185.179688 142.832031 L 346.203125 142.832031 L 346.203125 154.515625 " fill-opacity="1" fill-rule="nonzero"/><path fill="#caddff" d="M 346.832031 206.699219 L 185.804688 206.699219 L 185.804688 195.015625 L 346.832031 195.015625 L 346.832031 206.699219 " fill-opacity="1" fill-rule="nonzero"/><path fill="#caddff" d="M 432.078125 179.417969 L 185.183594 179.417969 L 185.183594 167.730469 L 432.078125 167.730469 L 432.078125 179.417969 " fill-opacity="1" fill-rule="nonzero"/><path fill="#000000" d="M 545.171875 89.085938 C 552.238281 101.136719 568.820312 103.507812 572.539062 103.921875 C 587.65625 105.617188 598.808594 98.351562 601.824219 96.238281 C 607.0625 99.457031 619.742188 106.222656 636.300781 104.957031 C 649.382812 103.953125 671.433594 97.421875 675.707031 82.125 C 680.816406 63.808594 657.769531 42.546875 637.992188 35.035156 C 621.40625 28.734375 596.125 27.933594 584.027344 40.683594 C 579.574219 45.363281 578.894531 49.785156 573.640625 51.316406 C 564.222656 54.066406 557.292969 42.472656 545.078125 43.0625 C 537.753906 43.417969 532.039062 47.984375 528.503906 51.535156 C 519.488281 54.507812 513.964844 60.488281 514.636719 65.300781 C 515.34375 70.316406 522.667969 73.355469 524.101562 73.945312 C 531.527344 77.027344 535.464844 73.921875 539.863281 77.140625 C 543.753906 80 542.179688 83.976562 545.171875 89.085938 " fill-opacity="1" fill-rule="nonzero"/><path fill="#ffffff" d="M 564.253906 106.164062 C 564.253906 106.164062 527.164062 118.011719 509.132812 106.164062 C 500.65625 100.597656 469.101562 61.265625 462.257812 57.632812 C 458.097656 55.414062 451.632812 52.097656 447.203125 49.832031 C 444.113281 48.253906 440.503906 48.085938 437.273438 49.367188 L 418.851562 56.695312 C 418.851562 56.695312 424.210938 61 432.949219 59.28125 C 438.585938 58.167969 444.421875 58.734375 449.613281 61.195312 L 449.96875 61.359375 L 433.410156 66.511719 C 433.410156 66.511719 435.921875 70.691406 444.789062 69.085938 C 449.476562 68.238281 455.125 69.289062 459.410156 70.476562 L 459.710938 70.632812 C 459.710938 70.632812 475.535156 114.558594 498.753906 128.308594 C 532.527344 148.3125 568.023438 135.738281 568.023438 135.738281 L 564.253906 106.164062 " fill-opacity="1" fill-rule="nonzero"/><path fill="#000000" d="M 448.46875 67.378906 C 452.484375 67.378906 456.65625 68.261719 459.78125 69.125 L 460.054688 69.230469 L 460.847656 69.640625 L 461.03125 70.15625 C 461.195312 70.59375 476.957031 113.769531 499.46875 127.101562 C 529.066406 144.632812 560.347656 136.601562 566.476562 134.753906 L 563.066406 107.996094 C 555.597656 110.164062 524.789062 118.128906 508.359375 107.34375 C 503.992188 104.476562 494.390625 93.714844 484.21875 82.320312 C 474.683594 71.636719 464.816406 60.585938 461.59375 58.875 C 457.214844 56.546875 450.296875 53 446.5625 51.089844 C 443.832031 49.699219 440.636719 49.546875 437.792969 50.675781 L 422.078125 56.925781 C 424.265625 57.878906 427.914062 58.839844 432.675781 57.90625 C 438.804688 56.691406 444.859375 57.394531 450.210938 59.925781 L 453.828125 61.636719 L 436.273438 67.097656 C 437.730469 67.832031 440.296875 68.472656 444.539062 67.703125 C 445.804688 67.476562 447.125 67.378906 448.46875 67.378906 Z M 541.402344 140.980469 C 528.757812 140.980469 513.179688 138.492188 498.035156 129.519531 C 475.871094 116.398438 460.683594 77.296875 458.609375 71.714844 C 454.75 70.6875 449.402344 69.6875 445.039062 70.46875 C 435.324219 72.230469 432.324219 67.445312 432.199219 67.238281 L 431.285156 65.707031 L 445.746094 61.207031 C 441.796875 60.003906 437.527344 59.8125 433.222656 60.660156 C 423.953125 62.484375 418.207031 57.984375 417.960938 57.796875 L 416.082031 56.285156 L 436.753906 48.0625 C 440.355469 46.632812 444.394531 46.824219 447.839844 48.582031 C 451.585938 50.496094 458.519531 54.054688 462.914062 56.386719 C 466.582031 58.339844 476.167969 69.078125 486.320312 80.449219 C 495.917969 91.207031 505.851562 102.328125 509.90625 104.988281 C 527.167969 116.332031 563.460938 104.945312 563.824219 104.828125 L 565.429688 104.3125 L 569.558594 136.6875 L 568.484375 137.066406 C 568.285156 137.136719 557.109375 140.980469 541.402344 140.980469 " fill-opacity="1" fill-rule="nonzero"/><path fill="#000000" d="M 633.164062 175.117188 C 633.164062 175.117188 600.910156 197.011719 555.898438 190.5625 C 555.898438 190.5625 561.980469 178.816406 572.386719 174.601562 C 582.785156 170.386719 633.164062 175.117188 633.164062 175.117188 " fill-opacity="1" fill-rule="nonzero"/><path fill="#99b9ff" d="M 677.554688 230.359375 C 675.546875 181.242188 647.226562 163.140625 647.226562 163.140625 L 588.859375 177.695312 L 564.785156 230.359375 L 677.554688 230.359375 " fill-opacity="1" fill-rule="nonzero"/><path fill="#5479f7" d="M 556.125 96.867188 L 586.8125 81.542969 C 594.59375 77.660156 604.007812 79.414062 609.847656 85.859375 C 623.230469 100.636719 646.296875 129.195312 657.890625 161.710938 C 657.890625 161.710938 637.042969 188.300781 609.46875 186.449219 C 581.902344 184.597656 565.648438 182.824219 555.894531 190.566406 C 555.894531 190.566406 547.785156 149.800781 546.148438 113.796875 C 545.824219 106.679688 549.746094 100.050781 556.125 96.867188 " fill-opacity="1" fill-rule="nonzero"/><path fill="#ffffff" d="M 556.195312 71.242188 C 556.242188 71.1875 559.382812 67.601562 557.660156 64.96875 C 555.929688 62.320312 552.492188 65.828125 552.492188 65.828125 C 552.492188 65.828125 549.585938 60.792969 542.949219 60.96875 C 542.949219 60.96875 540.113281 67.410156 532.871094 67.375 C 532.871094 67.375 534.523438 71.140625 536.96875 75.324219 L 537.753906 79.832031 C 537.875 80.507812 538.632812 80.859375 539.230469 80.507812 C 539.675781 80.246094 540.242188 80.363281 540.558594 80.78125 C 542.351562 83.128906 544.292969 85.105469 546.199219 85.957031 C 548.863281 87.152344 551.25 85.925781 553.050781 83.628906 C 557.28125 88.753906 563.527344 97.480469 560.613281 101.257812 C 560.613281 101.257812 570.136719 104.011719 579.550781 91.070312 L 556.195312 71.242188 " fill-opacity="1" fill-rule="nonzero"/><path fill="#000000" d="M 562.640625 100.101562 C 565.445312 100.175781 571.410156 99.253906 577.632812 91.277344 L 554.191406 71.378906 L 555.144531 70.308594 C 555.789062 69.566406 557.410156 67.148438 556.488281 65.734375 C 556.269531 65.410156 556.113281 65.394531 556.027344 65.382812 C 555.351562 65.324219 554.136719 66.167969 553.5 66.808594 L 552.203125 68.121094 L 551.28125 66.523438 C 551.183594 66.363281 548.90625 62.613281 543.792969 62.378906 C 542.800781 64.082031 540.09375 67.792969 535.007812 68.617188 C 535.71875 70.089844 536.832031 72.292969 538.183594 74.613281 L 538.3125 74.832031 L 539.054688 79.058594 C 540.003906 78.773438 541.054688 79.101562 541.683594 79.921875 C 543.574219 82.402344 545.285156 84.003906 546.78125 84.671875 C 548.578125 85.476562 550.324219 84.835938 551.945312 82.753906 L 553.023438 81.378906 L 554.140625 82.726562 C 560.578125 90.527344 563.425781 96.355469 562.640625 100.101562 Z M 562.953125 102.914062 C 561.351562 102.914062 560.351562 102.640625 560.226562 102.601562 L 558.246094 102.027344 L 559.503906 100.390625 C 561.074219 98.359375 558.578125 92.828125 552.992188 85.78125 C 550.78125 87.835938 548.167969 88.371094 545.628906 87.238281 C 543.734375 86.386719 541.769531 84.628906 539.632812 81.871094 C 539.027344 82.121094 538.335938 82.105469 537.730469 81.828125 C 537.011719 81.5 536.507812 80.839844 536.375 80.066406 L 535.632812 75.8125 C 533.242188 71.699219 531.65625 68.085938 531.585938 67.9375 L 530.722656 65.953125 L 532.882812 65.964844 C 532.898438 65.964844 532.914062 65.964844 532.929688 65.964844 C 539.136719 65.964844 541.636719 60.457031 541.664062 60.398438 L 542.019531 59.582031 L 542.910156 59.5625 C 548.117188 59.429688 551.257812 62.097656 552.730469 63.785156 C 553.648438 63.132812 554.960938 62.460938 556.300781 62.585938 C 557.027344 62.65625 558.058594 62.992188 558.84375 64.195312 C 560.453125 66.652344 559.121094 69.476562 558.117188 71.015625 L 581.460938 90.839844 L 580.691406 91.886719 C 573.765625 101.414062 566.703125 102.90625 562.953125 102.914062 " fill-opacity="1" fill-rule="nonzero"/><path fill="#000000" d="M 553.054688 85.03125 C 552.730469 85.03125 552.410156 84.921875 552.148438 84.703125 C 551.550781 84.199219 551.472656 83.3125 551.976562 82.722656 C 552.996094 81.507812 553.933594 78.820312 554.203125 77.890625 C 554.425781 77.144531 555.203125 76.71875 555.953125 76.9375 C 556.695312 77.15625 557.125 77.9375 556.902344 78.675781 C 556.789062 79.082031 555.710938 82.652344 554.125 84.53125 C 553.851562 84.859375 553.453125 85.03125 553.054688 85.03125 " fill-opacity="1" fill-rule="nonzero"/><path fill="#ffffff" d="M 592.160156 120.109375 C 592.160156 120.109375 569.015625 151.410156 547.464844 152.355469 C 537.332031 152.796875 488.722656 139.363281 481.042969 140.417969 C 476.375 141.058594 469.1875 142.148438 464.273438 142.90625 C 460.839844 143.429688 457.808594 145.410156 455.945312 148.332031 L 447.363281 161.808594 C 446.492188 163.167969 447.75 164.90625 449.304688 164.476562 C 451.835938 163.757812 455.214844 162.195312 458.363281 158.765625 C 462.117188 154.683594 466.992188 151.792969 472.441406 150.785156 L 473.257812 150.636719 C 473.257812 150.636719 482.085938 154.046875 486.25 152.5 L 486.585938 152.453125 C 486.585938 152.453125 525.132812 178.8125 552.003906 176.382812 C 591.101562 172.847656 612.523438 141.886719 612.523438 141.886719 L 592.160156 120.109375 " fill-opacity="1" fill-rule="nonzero"/><path fill="#000000" d="M 486.929688 150.984375 L 487.382812 151.292969 C 487.765625 151.550781 525.832031 177.34375 551.882812 174.980469 C 586.097656 171.886719 606.796875 147.066406 610.695312 141.988281 L 592.265625 122.28125 C 587.476562 128.414062 567.15625 152.898438 547.527344 153.761719 C 542.308594 153.964844 528.214844 150.878906 513.304688 147.589844 C 499.316406 144.503906 484.839844 141.308594 481.234375 141.8125 C 476.65625 142.4375 469.601562 143.507812 464.484375 144.292969 C 461.457031 144.757812 458.777344 146.503906 457.136719 149.089844 L 448.550781 162.5625 C 448.433594 162.742188 448.496094 162.890625 448.570312 162.992188 C 448.703125 163.179688 448.867188 163.136719 448.921875 163.117188 C 451.097656 162.507812 454.324219 161.089844 457.335938 157.8125 C 461.433594 153.351562 466.5625 150.445312 472.1875 149.40625 L 473.394531 149.179688 L 473.761719 149.324219 C 476.082031 150.214844 482.757812 152.296875 485.757812 151.183594 L 486.050781 151.109375 Z M 548.363281 177.945312 C 523.121094 177.945312 490.957031 157.070312 486.3125 153.960938 C 482.074219 155.191406 475.003906 152.78125 473.125 152.089844 L 472.695312 152.167969 C 467.683594 153.097656 463.085938 155.707031 459.402344 159.71875 C 455.945312 163.480469 452.207031 165.117188 449.683594 165.828125 C 448.414062 166.175781 447.09375 165.722656 446.308594 164.667969 C 445.511719 163.59375 445.457031 162.175781 446.175781 161.058594 L 454.761719 147.582031 C 456.84375 144.316406 460.230469 142.097656 464.0625 141.511719 C 469.179688 140.726562 476.25 139.65625 480.851562 139.023438 C 484.96875 138.46875 499.027344 141.5625 513.910156 144.84375 C 527.988281 147.949219 542.542969 151.167969 547.402344 150.949219 C 568.042969 150.046875 590.800781 119.582031 591.027344 119.273438 L 592.03125 117.914062 L 614.328125 141.75 L 613.679688 142.6875 C 613.464844 143 591.433594 174.230469 552.136719 177.78125 C 550.898438 177.898438 549.636719 177.945312 548.363281 177.945312 " fill-opacity="1" fill-rule="nonzero"/><path fill="#000000" d="M 592.15625 121.515625 C 591.964844 121.515625 591.769531 121.476562 591.582031 121.394531 C 590.875 121.074219 590.558594 120.242188 590.875 119.535156 L 598.445312 102.640625 C 598.765625 101.929688 599.597656 101.613281 600.308594 101.929688 C 601.007812 102.25 601.328125 103.082031 601.007812 103.792969 L 593.441406 120.683594 C 593.207031 121.207031 592.695312 121.515625 592.15625 121.515625 " fill-opacity="1" fill-rule="nonzero"/><path fill="#000000" d="M 612.527344 143.296875 C 611.964844 143.296875 611.433594 142.960938 611.21875 142.402344 C 610.933594 141.679688 611.285156 140.863281 612.007812 140.578125 L 629.222656 133.78125 C 629.945312 133.5 630.761719 133.855469 631.042969 134.578125 C 631.332031 135.300781 630.976562 136.113281 630.253906 136.398438 L 613.039062 143.191406 C 612.867188 143.261719 612.699219 143.296875 612.527344 143.296875 " fill-opacity="1" fill-rule="nonzero"/><path fill="#000000" d="M 711.945312 222.296875 L 604.996094 222.296875 L 678.890625 100.390625 C 681.203125 96.578125 685.414062 94.273438 690.054688 94.273438 L 776.847656 94.273438 C 782.363281 94.273438 785.976562 100.167969 783.230469 104.695312 L 711.945312 222.296875 " fill-opacity="1" fill-rule="nonzero"/><path fill="#caddff" d="M 730.988281 137.019531 C 727.746094 142.363281 720.46875 146.691406 714.726562 146.691406 C 708.980469 146.691406 706.945312 142.363281 710.1875 137.019531 C 713.421875 131.675781 720.707031 127.34375 726.453125 127.34375 C 732.195312 127.34375 734.226562 131.675781 730.988281 137.019531 " fill-opacity="1" fill-rule="nonzero"/><path fill="#000000" d="M 710.347656 234.320312 L 481.945312 234.320312 C 479.699219 234.320312 477.882812 232.5 477.882812 230.253906 L 477.882812 221.261719 L 714.410156 221.261719 L 714.410156 230.253906 C 714.410156 232.5 712.585938 234.320312 710.347656 234.320312 " fill-opacity="1" fill-rule="nonzero"/><path fill="#ffffff" d="M 707.382812 223.832031 L 598.84375 223.832031 C 598.070312 223.832031 597.4375 223.203125 597.4375 222.429688 C 597.4375 221.648438 598.070312 221.019531 598.84375 221.019531 L 707.382812 221.019531 C 708.152344 221.019531 708.789062 221.648438 708.789062 222.429688 C 708.789062 223.203125 708.152344 223.832031 707.382812 223.832031 " fill-opacity="1" fill-rule="nonzero"/><path fill="#000000" d="M 615.441406 774.128906 L 509.917969 774.128906 L 636.378906 653.839844 C 640.328125 650.085938 645.5 647.804688 650.078125 647.804688 L 735.726562 647.804688 C 741.164062 647.804688 742.136719 653.625 737.441406 658.085938 L 615.441406 774.128906 " fill-opacity="1" fill-rule="nonzero"/><path fill="#caddff" d="M 671.691406 689.984375 C 666.148438 695.257812 657.0625 699.53125 651.394531 699.53125 C 645.722656 699.53125 645.625 695.257812 651.167969 689.984375 C 656.707031 684.714844 665.796875 680.4375 671.464844 680.4375 C 677.128906 680.4375 677.234375 684.714844 671.691406 689.984375 " fill-opacity="1" fill-rule="nonzero"/><path fill="#000000" d="M 613.867188 785.996094 L 388.5 785.996094 C 386.285156 785.996094 384.492188 784.203125 384.492188 781.984375 L 384.492188 773.113281 L 617.878906 773.113281 L 617.878906 781.984375 C 617.878906 784.203125 616.082031 785.996094 613.867188 785.996094 " fill-opacity="1" fill-rule="nonzero"/><path fill="#ffffff" d="M 610.945312 775.664062 L 503.851562 775.664062 C 503.078125 775.664062 502.445312 775.035156 502.445312 774.257812 C 502.445312 773.480469 503.078125 772.851562 503.851562 772.851562 L 610.945312 772.851562 C 611.722656 772.851562 612.355469 773.480469 612.355469 774.257812 C 612.355469 775.035156 611.722656 775.664062 610.945312 775.664062 " fill-opacity="1" fill-rule="nonzero"/><path fill="#000000" d="M 292.585938 563.636719 C 292.585938 563.636719 270.753906 543.457031 262.742188 538.761719 C 254.730469 534.0625 244.753906 514.804688 271.675781 503.007812 C 280.398438 499.183594 282.117188 488.589844 298.921875 486.78125 C 315.726562 484.972656 329.679688 493.5 331.488281 504.097656 C 333.296875 514.6875 323.25 523.863281 315.742188 525.085938 C 308.230469 526.316406 292.585938 563.636719 292.585938 563.636719 " fill-opacity="1" fill-rule="nonzero"/><path fill="#ffffff" d="M 330.53125 538.738281 L 332.875 535.359375 L 323.617188 523.515625 L 317.277344 507.96875 C 299.351562 506.753906 292.160156 511.652344 291.925781 525.402344 C 291.773438 534.210938 287.132812 534.425781 287.132812 534.425781 C 287.132812 534.425781 280.316406 527.089844 276.792969 535.789062 C 273.265625 544.492188 287.921875 550.535156 287.921875 550.535156 C 289.828125 554.554688 289.371094 559.289062 286.734375 562.875 L 260.664062 598.289062 C 260.664062 598.289062 309.546875 611.226562 310.0625 603.523438 C 310.210938 601.335938 309.464844 599.46875 308.324219 597.917969 C 302.691406 590.242188 312.867188 569.503906 312.867188 569.503906 L 329.1875 562.914062 C 332.175781 561.703125 333.769531 558.429688 332.867188 555.332031 L 329.640625 544.230469 C 329.097656 542.359375 329.421875 540.339844 330.53125 538.738281 " fill-opacity="1" fill-rule="nonzero"/><path fill="#000000" d="M 263.027344 597.453125 C 279.242188 601.621094 304.335938 606.660156 308.433594 603.722656 C 308.648438 603.5625 308.65625 603.480469 308.65625 603.429688 C 308.765625 601.796875 308.273438 600.226562 307.191406 598.753906 C 301.121094 590.484375 311.175781 569.761719 311.609375 568.882812 C 311.761719 568.570312 312.023438 568.324219 312.34375 568.199219 L 328.65625 561.609375 C 330.992188 560.667969 332.21875 558.140625 331.519531 555.726562 L 328.289062 544.625 C 327.625 542.335938 328.019531 539.898438 329.375 537.9375 L 331.128906 535.410156 L 322.511719 524.382812 C 322.429688 524.28125 322.367188 524.167969 322.316406 524.050781 L 316.304688 509.320312 C 306.980469 508.78125 301 510.023438 297.535156 513.207031 C 294.769531 515.75 293.429688 519.628906 293.332031 525.421875 C 293.164062 535.441406 287.441406 535.816406 287.199219 535.824219 C 286.777344 535.851562 286.382812 535.683594 286.101562 535.378906 C 285.367188 534.59375 283.023438 532.628906 281.09375 532.984375 C 279.910156 533.199219 278.902344 534.324219 278.09375 536.320312 C 275.136719 543.621094 288.328125 549.179688 288.460938 549.238281 C 288.78125 549.367188 289.046875 549.617188 289.195312 549.933594 C 291.320312 554.425781 290.8125 559.703125 287.867188 563.707031 Z M 303.117188 607.316406 C 289.738281 607.316406 263.84375 600.585938 260.304688 599.648438 C 259.855469 599.527344 259.492188 599.195312 259.335938 598.753906 C 259.183594 598.320312 259.253906 597.828125 259.53125 597.457031 L 285.601562 562.042969 C 287.832031 559.007812 288.296875 555.054688 286.859375 551.605469 C 284.085938 550.351562 271.851562 544.230469 275.488281 535.261719 C 276.683594 532.316406 278.398438 530.617188 280.589844 530.214844 C 283.550781 529.671875 286.347656 531.789062 287.550781 532.875 C 288.476562 532.464844 290.425781 530.953125 290.519531 525.375 C 290.628906 518.851562 292.304688 514.191406 295.632812 511.132812 C 299.8125 507.296875 306.71875 505.84375 317.367188 506.566406 C 317.90625 506.601562 318.375 506.941406 318.578125 507.4375 L 324.847656 522.804688 L 333.984375 534.492188 C 334.359375 534.976562 334.382812 535.652344 334.027344 536.15625 L 331.691406 539.539062 C 330.816406 540.800781 330.5625 542.367188 330.992188 543.84375 L 334.21875 554.941406 C 335.324219 558.742188 333.386719 562.730469 329.710938 564.21875 L 313.902344 570.601562 C 311.078125 576.535156 305.371094 591.519531 309.457031 597.085938 C 310.945312 599.109375 311.621094 601.304688 311.46875 603.617188 C 311.421875 604.28125 311.144531 605.238281 310.078125 606.003906 C 308.777344 606.9375 306.300781 607.316406 303.117188 607.316406 " fill-opacity="1" fill-rule="nonzero"/><path fill="#000000" d="M 288.445312 522.824219 L 300.847656 539.59375 C 306.105469 546.703125 315.734375 548.972656 323.617188 544.957031 L 330.347656 541.527344 L 342.789062 564.429688 C 344.125 567.6875 342.394531 571.390625 339.042969 572.460938 L 320.960938 579.960938 C 315.792969 581.617188 310.132812 580.222656 306.320312 576.363281 L 286.878906 556.664062 C 286.878906 556.664062 294.25 549.828125 287.132812 534.425781 C 280.015625 519.019531 288.445312 522.824219 288.445312 522.824219 " fill-opacity="1" fill-rule="nonzero"/><path fill="#5479f7" d="M 496.578125 662.152344 L 468.441406 640.902344 C 468.441406 640.902344 450.089844 650.34375 414.050781 652.152344 C 396.707031 653.023438 380.953125 631.128906 372.007812 625.292969 C 358.460938 616.453125 343.003906 610.988281 326.882812 609.664062 L 262.109375 604.335938 C 226.316406 601.386719 192.195312 620.015625 175.371094 651.738281 C 157.382812 685.660156 135.082031 730.902344 120.851562 771.152344 C 118.226562 778.574219 123.695312 786.367188 131.570312 786.367188 L 303.445312 786.367188 L 341.265625 691.695312 C 360.105469 699.714844 386.222656 710.820312 427.179688 710.28125 C 474.695312 709.65625 496.578125 662.152344 496.578125 662.152344 " fill-opacity="1" fill-rule="nonzero"/><path fill="#000000" d="M 254.679688 605.433594 C 222.132812 605.433594 192.039062 623.3125 176.613281 652.398438 C 159.804688 684.09375 136.714844 730.503906 122.175781 771.621094 C 121.078125 774.734375 121.535156 778.066406 123.4375 780.753906 C 125.328125 783.425781 128.292969 784.957031 131.570312 784.957031 L 302.492188 784.957031 L 339.957031 691.171875 C 340.097656 690.820312 340.371094 690.542969 340.726562 690.398438 C 341.074219 690.253906 341.464844 690.253906 341.816406 690.402344 C 360.660156 698.425781 386.441406 709.414062 427.15625 708.875 C 469.390625 708.320312 491.289062 669.382812 494.796875 662.574219 L 468.277344 642.542969 C 464.332031 644.378906 446.3125 651.941406 414.117188 653.554688 C 401.082031 654.238281 388.972656 642.660156 380.136719 634.230469 C 376.660156 630.910156 373.660156 628.042969 371.238281 626.46875 C 357.761719 617.675781 342.386719 612.347656 326.765625 611.066406 L 261.996094 605.734375 C 259.546875 605.53125 257.105469 605.433594 254.679688 605.433594 Z M 303.445312 787.769531 L 131.570312 787.769531 C 127.367188 787.769531 123.566406 785.804688 121.140625 782.378906 C 118.703125 778.933594 118.113281 774.671875 119.523438 770.6875 C 134.121094 729.402344 157.273438 682.855469 174.128906 651.078125 C 191.230469 618.835938 225.816406 599.941406 262.226562 602.933594 L 326.996094 608.261719 C 343.078125 609.585938 358.910156 615.066406 372.777344 624.109375 C 375.414062 625.832031 378.503906 628.777344 382.078125 632.195312 C 391.015625 640.722656 402.140625 651.335938 413.976562 650.75 C 449.234375 648.976562 467.617188 639.742188 467.800781 639.652344 C 468.277344 639.40625 468.855469 639.457031 469.289062 639.78125 L 497.421875 661.03125 C 497.949219 661.429688 498.128906 662.140625 497.851562 662.742188 C 497.625 663.238281 492.152344 674.96875 480.710938 686.957031 C 470.113281 698.054688 452.230469 711.359375 427.195312 711.683594 C 386.875 712.222656 360.992188 701.617188 342.039062 693.554688 L 304.753906 786.886719 C 304.542969 787.417969 304.023438 787.769531 303.445312 787.769531 " fill-opacity="1" fill-rule="nonzero"/><path fill="#5479f7" d="M 348.320312 710.550781 C 321.542969 701.691406 307.074219 660.082031 307.074219 660.082031 L 228.230469 675.953125 C 228.230469 675.953125 282.878906 763.132812 320.539062 771.121094 C 344.011719 776.09375 391.167969 753.960938 423.375 736.570312 C 419.246094 727.445312 413.308594 714.351562 408.90625 704.714844 C 385.359375 710.4375 360.480469 714.578125 348.320312 710.550781 " fill-opacity="1" fill-rule="nonzero"/><path fill="#000000" d="M 328.011719 773.234375 C 325.21875 773.234375 322.617188 772.996094 320.246094 772.496094 C 282.4375 764.480469 229.28125 680.28125 227.039062 676.703125 C 226.625 676.042969 226.824219 675.175781 227.484375 674.761719 C 228.144531 674.355469 229.011719 674.546875 229.421875 675.207031 C 229.964844 676.074219 284.183594 761.976562 320.832031 769.742188 C 338.351562 773.460938 374.089844 761.460938 421.554688 735.953125 C 417.5625 727.140625 412.230469 715.378906 408.109375 706.355469 C 378.527344 713.464844 358.265625 715.324219 347.875 711.890625 C 320.75 702.910156 306.347656 662.265625 305.75 660.542969 C 305.492188 659.808594 305.878906 659.003906 306.613281 658.75 C 307.34375 658.496094 308.148438 658.886719 308.402344 659.617188 C 308.546875 660.027344 322.957031 700.675781 348.761719 709.21875 C 358.632812 712.488281 379.316406 710.453125 408.574219 703.347656 C 409.226562 703.191406 409.90625 703.519531 410.1875 704.128906 C 414.554688 713.683594 420.464844 726.726562 424.652344 735.992188 C 424.960938 736.664062 424.695312 737.457031 424.042969 737.808594 C 393.117188 754.503906 352.875 773.234375 328.011719 773.234375 " fill-opacity="1" fill-rule="nonzero"/><path fill="#ffffff" d="M 509.023438 713.914062 L 472.523438 693.644531 C 466.890625 690.519531 460.210938 689.859375 454.078125 691.835938 C 443.902344 695.117188 426.789062 700.371094 408.90625 704.714844 C 413.308594 714.351562 419.246094 727.445312 423.375 736.570312 C 442.84375 726.058594 456.851562 717.285156 456.851562 717.285156 L 480.410156 729.6875 C 480.410156 729.6875 479.097656 750.363281 483.777344 750.929688 C 488.457031 751.5 490.210938 732.421875 490.210938 732.421875 C 490.210938 732.421875 494.234375 756.105469 501.183594 750.929688 L 503.851562 722.332031 C 503.851562 722.332031 508.460938 735 511.109375 735.519531 C 513.753906 736.042969 513.753906 736.042969 513.753906 736.042969 L 509.023438 713.914062 " fill-opacity="1" fill-rule="nonzero"/><path fill="#000000" d="M 490.214844 731.019531 C 490.894531 731.019531 491.488281 731.511719 491.601562 732.191406 C 492.75 738.925781 495.71875 748.957031 498.730469 750.164062 C 498.992188 750.269531 499.34375 750.339844 499.847656 750.109375 L 502.449219 722.199219 C 502.507812 721.542969 503.019531 721.019531 503.667969 720.933594 C 504.316406 720.84375 504.945312 721.230469 505.171875 721.847656 C 507.414062 728.007812 510.289062 733.648438 511.4375 734.15625 L 511.9375 734.253906 L 507.777344 714.839844 L 471.839844 694.878906 C 466.5625 691.945312 460.242188 691.324219 454.507812 693.175781 C 443.902344 696.59375 427.859375 701.492188 410.894531 705.675781 C 414.953125 714.574219 420.125 725.980469 424.035156 734.613281 C 442.554688 724.5625 455.96875 716.175781 456.105469 716.089844 C 456.53125 715.828125 457.0625 715.808594 457.507812 716.039062 L 481.070312 728.445312 C 481.554688 728.703125 481.851562 729.226562 481.816406 729.777344 C 481.125 740.671875 482.394531 749.347656 483.949219 749.535156 C 483.984375 749.539062 484.097656 749.550781 484.328125 749.367188 C 486.621094 747.515625 488.296875 737.914062 488.8125 732.296875 C 488.878906 731.589844 489.457031 731.046875 490.160156 731.019531 C 490.175781 731.019531 490.195312 731.019531 490.214844 731.019531 Z M 499.21875 753.074219 C 498.628906 753.074219 498.105469 752.945312 497.6875 752.773438 C 494.328125 751.429688 491.980469 745.460938 490.535156 740.285156 C 489.6875 744.777344 488.285156 749.789062 486.09375 751.554688 C 485.136719 752.324219 484.21875 752.402344 483.609375 752.328125 C 478.429688 751.699219 478.566406 737.527344 478.953125 730.507812 L 456.90625 718.902344 C 453.847656 720.792969 440.917969 728.695312 424.042969 737.808594 C 423.699219 737.992188 423.292969 738.03125 422.925781 737.902344 C 422.554688 737.777344 422.253906 737.503906 422.09375 737.152344 C 417.902344 727.890625 411.992188 714.847656 407.625 705.300781 C 407.449219 704.917969 407.460938 704.476562 407.640625 704.097656 C 407.824219 703.726562 408.164062 703.449219 408.574219 703.347656 C 426.066406 699.101562 442.738281 694.015625 453.644531 690.5 C 460.121094 688.414062 467.25 689.109375 473.207031 692.417969 L 509.699219 712.6875 C 510.058594 712.882812 510.308594 713.230469 510.394531 713.625 L 515.132812 735.75 C 515.230469 736.210938 515.089844 736.691406 514.757812 737.03125 C 514.425781 737.367188 513.945312 737.511719 513.484375 737.421875 L 510.835938 736.902344 C 508.804688 736.496094 506.527344 732.421875 504.707031 728.28125 L 502.582031 751.058594 C 502.546875 751.457031 502.34375 751.816406 502.023438 752.058594 C 500.996094 752.820312 500.039062 753.074219 499.21875 753.074219 " fill-opacity="1" fill-rule="nonzero"/><path fill="#5479f7" d="M 323.015625 612.640625 L 324.625 602.886719 C 325.164062 599.625 323.046875 596.527344 319.8125 595.84375 C 303.699219 592.449219 259.035156 582.777344 253.222656 578.675781 C 246.109375 573.664062 194.601562 622.183594 202.324219 620.910156 C 259.824219 611.4375 323.015625 612.640625 323.015625 612.640625 " fill-opacity="1" fill-rule="nonzero"/><path fill="#000000" d="M 251.855469 579.722656 C 251.398438 579.722656 250.609375 579.84375 249.308594 580.367188 C 236.695312 585.40625 208.355469 612.234375 203.605469 619.273438 C 255.832031 610.859375 312.824219 611.113281 321.828125 611.21875 L 323.238281 602.65625 C 323.652344 600.132812 322.023438 597.746094 319.523438 597.21875 C 296.917969 592.457031 258.140625 583.863281 252.414062 579.828125 C 252.402344 579.820312 252.253906 579.722656 251.855469 579.722656 Z M 202.058594 622.339844 C 200.878906 622.339844 200.421875 621.554688 200.296875 621.285156 C 199.871094 620.351562 199.226562 618.941406 208.621094 609.324219 C 214.03125 603.785156 221.21875 597.199219 227.847656 591.707031 C 249.125 574.070312 252.820312 576.671875 254.035156 577.53125 C 258.539062 580.703125 291.117188 588.363281 320.105469 594.464844 C 324.078125 595.308594 326.675781 599.105469 326.011719 603.113281 L 324.40625 612.871094 C 324.292969 613.558594 323.679688 614.050781 322.988281 614.046875 C 322.359375 614.035156 259.261719 612.953125 202.554688 622.296875 C 202.375 622.328125 202.210938 622.339844 202.058594 622.339844 " fill-opacity="1" fill-rule="nonzero"/><path fill="#ffffff" d="M 499.074219 593.699219 C 500.605469 592.128906 507.070312 588.035156 509.714844 587.117188 L 538.941406 573.316406 C 538.941406 573.316406 538.65625 584.351562 533.214844 589.179688 C 540.0625 591.609375 545.164062 594.527344 545.164062 594.527344 C 545.164062 594.527344 558.359375 588.726562 561.425781 587.972656 C 564.488281 587.226562 568.621094 585.8125 572.058594 586.949219 C 575.507812 588.097656 578.097656 591.832031 578.097656 591.832031 L 550.300781 610.644531 L 511.117188 609.109375 L 496.578125 662.152344 L 468.441406 640.902344 L 499.074219 593.699219 " fill-opacity="1" fill-rule="nonzero"/><path fill="#000000" d="M 470.335938 640.570312 L 495.769531 659.777344 L 509.753906 608.738281 C 509.925781 608.109375 510.511719 607.667969 511.167969 607.707031 L 549.894531 609.222656 L 576.039062 591.527344 C 575.085938 590.449219 573.46875 588.90625 571.617188 588.289062 C 569.058594 587.433594 565.761719 588.296875 563.121094 588.992188 C 562.648438 589.117188 562.191406 589.238281 561.757812 589.34375 C 559.339844 589.933594 549.375 594.214844 545.734375 595.816406 C 545.324219 595.996094 544.851562 595.972656 544.46875 595.746094 C 544.414062 595.722656 539.382812 592.859375 532.742188 590.503906 C 532.269531 590.339844 531.925781 589.9375 531.832031 589.449219 C 531.730469 588.960938 531.902344 588.457031 532.28125 588.128906 C 535.75 585.050781 536.941406 578.972656 537.335938 575.628906 L 510.316406 588.390625 C 510.273438 588.410156 510.222656 588.429688 510.179688 588.445312 C 507.785156 589.277344 501.71875 593.101562 500.167969 594.59375 Z M 496.578125 663.558594 C 496.277344 663.558594 495.976562 663.460938 495.726562 663.273438 L 467.59375 642.023438 C 467.003906 641.582031 466.859375 640.757812 467.257812 640.136719 L 497.890625 592.9375 C 497.941406 592.855469 498 592.78125 498.066406 592.71875 C 499.714844 591.027344 506.25 586.867188 509.179688 585.816406 L 538.34375 572.046875 C 538.777344 571.835938 539.296875 571.871094 539.707031 572.140625 C 540.117188 572.402344 540.359375 572.859375 540.34375 573.351562 C 540.332031 573.785156 540.046875 583.003906 535.675781 588.589844 C 540.300781 590.371094 543.851562 592.210938 545.238281 592.960938 C 547.957031 591.777344 558.300781 587.289062 561.089844 586.613281 C 561.507812 586.507812 561.945312 586.390625 562.40625 586.269531 C 565.40625 585.484375 569.152344 584.503906 572.507812 585.617188 C 576.351562 586.894531 579.136719 590.863281 579.253906 591.035156 C 579.46875 591.339844 579.546875 591.722656 579.476562 592.089844 C 579.410156 592.460938 579.195312 592.789062 578.882812 592.996094 L 551.085938 611.808594 C 550.84375 611.976562 550.546875 612.058594 550.242188 612.050781 L 512.175781 610.558594 L 497.933594 662.527344 C 497.808594 662.972656 497.472656 663.335938 497.03125 663.480469 C 496.886719 663.535156 496.734375 663.558594 496.578125 663.558594 " fill-opacity="1" fill-rule="nonzero"/><path fill="#000000" d="M 116.566406 45.515625 C 115.9375 45.515625 115.363281 45.09375 115.203125 44.453125 L 113.628906 38.253906 C 113.4375 37.496094 113.894531 36.730469 114.644531 36.535156 C 115.398438 36.351562 116.164062 36.804688 116.355469 37.554688 L 117.929688 43.761719 C 118.121094 44.511719 117.664062 45.28125 116.914062 45.46875 C 116.796875 45.5 116.679688 45.515625 116.566406 45.515625 " fill-opacity="1" fill-rule="nonzero"/><path fill="#000000" d="M 104.722656 56.554688 C 104.085938 56.554688 103.511719 56.121094 103.355469 55.472656 C 103.175781 54.714844 103.644531 53.957031 104.398438 53.777344 L 110.539062 52.320312 C 111.292969 52.136719 112.050781 52.605469 112.234375 53.359375 C 112.414062 54.117188 111.945312 54.875 111.1875 55.054688 L 105.050781 56.511719 C 104.941406 56.539062 104.832031 56.554688 104.722656 56.554688 " fill-opacity="1" fill-rule="nonzero"/><path fill="#000000" d="M 126.207031 51.445312 C 125.570312 51.445312 124.992188 51.011719 124.839844 50.363281 C 124.660156 49.609375 125.125 48.851562 125.882812 48.671875 L 132.019531 47.210938 C 132.777344 47.027344 133.535156 47.496094 133.714844 48.25 C 133.894531 49.007812 133.429688 49.765625 132.671875 49.945312 L 126.535156 51.40625 C 126.425781 51.433594 126.3125 51.445312 126.207031 51.445312 " fill-opacity="1" fill-rule="nonzero"/><path fill="#000000" d="M 122.078125 67.226562 C 121.449219 67.226562 120.878906 66.808594 120.714844 66.171875 L 119.140625 59.960938 C 118.949219 59.207031 119.40625 58.445312 120.160156 58.25 C 120.910156 58.0625 121.679688 58.519531 121.871094 59.273438 L 123.441406 65.476562 C 123.632812 66.230469 123.179688 66.996094 122.425781 67.1875 C 122.308594 67.214844 122.191406 67.226562 122.078125 67.226562 " fill-opacity="1" fill-rule="nonzero"/><path fill="#000000" d="M 80.222656 83.6875 C 78.660156 83.6875 77.15625 84.183594 75.898438 85.121094 C 74.375 86.261719 73.390625 87.925781 73.132812 89.8125 C 72.585938 93.777344 75.417969 97.503906 79.441406 98.125 C 81.40625 98.421875 83.347656 97.945312 84.914062 96.78125 C 86.4375 95.640625 87.421875 93.972656 87.679688 92.089844 C 88.226562 88.125 85.394531 84.398438 81.371094 83.777344 C 80.984375 83.71875 80.601562 83.6875 80.222656 83.6875 Z M 80.597656 101.023438 C 80.074219 101.023438 79.546875 100.980469 79.015625 100.898438 C 73.484375 100.050781 69.589844 94.90625 70.34375 89.429688 C 70.707031 86.792969 72.082031 84.457031 74.214844 82.867188 C 76.390625 81.246094 79.082031 80.582031 81.796875 80.996094 C 87.332031 81.84375 91.222656 86.992188 90.46875 92.472656 C 90.105469 95.109375 88.730469 97.441406 86.59375 99.035156 C 84.847656 100.335938 82.761719 101.023438 80.597656 101.023438 " fill-opacity="1" fill-rule="nonzero"/><path fill="#000000" d="M 520.015625 529.734375 C 519.234375 529.734375 518.605469 529.105469 518.605469 528.328125 L 518.605469 521.058594 C 518.605469 520.277344 519.234375 519.648438 520.015625 519.648438 C 520.789062 519.648438 521.421875 520.277344 521.421875 521.058594 L 521.421875 528.328125 C 521.421875 529.105469 520.789062 529.734375 520.015625 529.734375 " fill-opacity="1" fill-rule="nonzero"/><path fill="#000000" d="M 520.015625 546.679688 C 519.234375 546.679688 518.605469 546.046875 518.605469 545.273438 L 518.605469 537.996094 C 518.605469 537.222656 519.234375 536.589844 520.015625 536.589844 C 520.789062 536.589844 521.421875 537.222656 521.421875 537.996094 L 521.421875 545.273438 C 521.421875 546.046875 520.789062 546.679688 520.015625 546.679688 " fill-opacity="1" fill-rule="nonzero"/><path fill="#000000" d="M 515.179688 534.570312 L 507.90625 534.570312 C 507.125 534.570312 506.496094 533.941406 506.496094 533.164062 C 506.496094 532.386719 507.125 531.757812 507.90625 531.757812 L 515.179688 531.757812 C 515.957031 531.757812 516.585938 532.386719 516.585938 533.164062 C 516.585938 533.941406 515.957031 534.570312 515.179688 534.570312 " fill-opacity="1" fill-rule="nonzero"/><path fill="#000000" d="M 532.128906 534.570312 L 524.847656 534.570312 C 524.074219 534.570312 523.441406 533.941406 523.441406 533.164062 C 523.441406 532.386719 524.074219 531.757812 524.847656 531.757812 L 532.128906 531.757812 C 532.90625 531.757812 533.53125 532.386719 533.53125 533.164062 C 533.53125 533.941406 532.90625 534.570312 532.128906 534.570312 " fill-opacity="1" fill-rule="nonzero"/></svg>